<svg width="16" height="16" viewBox="0 0 16 16" fill="none" xmlns="http://www.w3.org/2000/svg">
<mask id="mask0_6_4619" style="mask-type:alpha" maskUnits="userSpaceOnUse" x="0" y="0" width="16" height="17">
<path fill-rule="evenodd" clip-rule="evenodd" d="M13.3334 9.7335L11.4607 8.00016L13.3334 6.2675V9.7335ZM10 10.6668C10 11.0348 9.70137 11.3335 9.33337 11.3335H3.33337C2.96537 11.3335 2.66671 11.0348 2.66671 10.6668V5.3335C2.66671 4.96616 2.96537 4.66683 3.33337 4.66683H9.33337C9.70137 4.66683 10 4.96616 10 5.3335V10.6668ZM14.008 4.76416C13.5907 4.58216 13.1067 4.6615 12.774 4.96816L11.3334 6.3015V5.3335C11.3334 4.23083 10.436 3.3335 9.33337 3.3335H3.33337C2.23071 3.3335 1.33337 4.23083 1.33337 5.3335V10.6668C1.33337 11.7702 2.23071 12.6668 3.33337 12.6668H9.33337C10.436 12.6668 11.3334 11.7702 11.3334 10.6668V9.6995L12.774 11.0322C12.9874 11.2302 13.264 11.3335 13.546 11.3335C13.702 11.3335 13.8587 11.3022 14.008 11.2368C14.414 11.0595 14.6667 10.6802 14.6667 10.2475V5.7535C14.6667 5.32083 14.414 4.9415 14.008 4.76416Z" fill="#071435"/>
</mask>
<g mask="url(#mask0_6_4619)">
<rect width="16" height="16" transform="translate(0 0.000427246)" fill="#77829E"/>
</g>
</svg>
