<svg width="16" height="16" viewBox="0 0 16 16" fill="none" xmlns="http://www.w3.org/2000/svg">
<mask id="mask0_2434_1561" style="mask-type:alpha" maskUnits="userSpaceOnUse" x="0" y="0" width="16" height="16">
<path fill-rule="evenodd" clip-rule="evenodd" d="M4.66672 7.33287C4.66672 6.96487 4.96539 6.6662 5.33339 6.6662C5.70139 6.6662 6.00005 6.96487 6.00005 7.33287C6.00005 7.70087 5.70139 7.99953 5.33339 7.99953C4.96539 7.99953 4.66672 7.70087 4.66672 7.33287ZM8.00005 6.6662C7.63205 6.6662 7.33339 6.96487 7.33339 7.33287C7.33339 7.70087 7.63205 7.99953 8.00005 7.99953C8.36805 7.99953 8.66672 7.70087 8.66672 7.33287C8.66672 6.96487 8.36805 6.6662 8.00005 6.6662ZM10.6667 6.6662C10.2987 6.6662 10.0001 6.96487 10.0001 7.33287C10.0001 7.70087 10.2987 7.99953 10.6667 7.99953C11.0347 7.99953 11.3334 7.70087 11.3334 7.33287C11.3334 6.96487 11.0347 6.6662 10.6667 6.6662ZM13.2657 8.19613C12.9277 10.3655 11.179 12.1648 9.01299 12.5708C7.96699 12.7681 6.90165 12.6555 5.93499 12.2461C5.66099 12.1301 5.37765 12.0715 5.09965 12.0715C4.97299 12.0715 4.84765 12.0835 4.72432 12.1081L2.84965 12.4828L3.22499 10.6048C3.30365 10.2148 3.25565 9.79747 3.08699 9.39814C2.67765 8.43147 2.56565 7.3668 2.76232 6.32013C3.16832 4.15413 4.96699 2.40547 7.13699 2.06747C8.86365 1.7988 10.5523 2.3428 11.771 3.56147C12.9903 4.7808 13.535 6.47013 13.2657 8.19613ZM12.7143 2.6188C11.191 1.09613 9.08432 0.416801 6.93165 0.749468C4.21365 1.17347 1.96032 3.3628 1.45165 6.07413C1.20632 7.37947 1.34765 8.7088 1.85899 9.91747C1.92365 10.0715 1.94365 10.2148 1.91832 10.3435L1.34632 13.2021C1.30232 13.4208 1.37099 13.6468 1.52899 13.8041C1.65499 13.9308 1.82499 13.9995 2.00032 13.9995C2.04365 13.9995 2.08699 13.9955 2.13099 13.9868L4.98632 13.4155C5.15032 13.3841 5.30899 13.4301 5.41499 13.4741C6.62499 13.9855 7.95432 14.1261 9.25832 13.8815C11.9703 13.3728 14.1597 11.1195 14.5837 8.40147C14.9183 6.25013 14.2377 4.14213 12.7143 2.6188Z" fill="#071435"/>
</mask>
<g mask="url(#mask0_2434_1561)">
<rect width="16" height="16" fill="#1551E5"/>
</g>
</svg>
