<svg width="16" height="16" viewBox="0 0 16 16" fill="none" xmlns="http://www.w3.org/2000/svg">
<mask id="mask0_2434_1575" style="mask-type:alpha" maskUnits="userSpaceOnUse" x="0" y="0" width="16" height="16">
<path fill-rule="evenodd" clip-rule="evenodd" d="M13.1598 2.84044C12.9285 2.60844 12.5532 2.60844 12.3218 2.84044L2.8405 12.3218C2.7245 12.4378 2.6665 12.5891 2.6665 12.7411C2.6665 12.8924 2.7245 13.0444 2.8405 13.1598C3.07184 13.3911 3.4465 13.3911 3.6785 13.1598L13.1598 3.67844C13.3912 3.44644 13.3912 3.07178 13.1598 2.84044ZM10.6667 12.6666C10.1154 12.6666 9.6667 12.218 9.6667 11.6666C9.6667 11.1153 10.1154 10.6666 10.6667 10.6666C11.218 10.6666 11.6667 11.1153 11.6667 11.6666C11.6667 12.218 11.218 12.6666 10.6667 12.6666ZM10.6667 9.33331C9.38004 9.33331 8.33337 10.38 8.33337 11.6666C8.33337 12.9533 9.38004 14 10.6667 14C11.9534 14 13 12.9533 13 11.6666C13 10.38 11.9534 9.33331 10.6667 9.33331ZM5.33337 3.99998C5.8847 3.99998 6.33337 4.44864 6.33337 4.99998C6.33337 5.55131 5.8847 5.99998 5.33337 5.99998C4.78204 5.99998 4.33337 5.55131 4.33337 4.99998C4.33337 4.44864 4.78204 3.99998 5.33337 3.99998ZM5.33337 7.33331C6.62004 7.33331 7.6667 6.28664 7.6667 4.99998C7.6667 3.71331 6.62004 2.66664 5.33337 2.66664C4.0467 2.66664 3.00004 3.71331 3.00004 4.99998C3.00004 6.28664 4.0467 7.33331 5.33337 7.33331Z" fill="#071435"/>
</mask>
<g mask="url(#mask0_2434_1575)">
<rect width="16" height="16" fill="#1551E5"/>
</g>
</svg>
