<svg width="16" height="16" viewBox="0 0 16 16" fill="none" xmlns="http://www.w3.org/2000/svg">
<mask id="mask0_6_4622" style="mask-type:alpha" maskUnits="userSpaceOnUse" x="0" y="0" width="16" height="17">
<path fill-rule="evenodd" clip-rule="evenodd" d="M7.33337 5.33377C7.33337 4.96577 7.63204 4.6671 8.00004 4.6671C8.36804 4.6671 8.66671 4.96577 8.66671 5.33377C8.66671 5.70177 8.36804 6.00044 8.00004 6.00044C7.63204 6.00044 7.33337 5.70177 7.33337 5.33377ZM7.33337 7.33377C7.33337 6.96577 7.63204 6.6671 8.00004 6.6671C8.36804 6.6671 8.66671 6.96577 8.66671 7.33377V10.6671C8.66671 11.0351 8.36804 11.3338 8.00004 11.3338C7.63204 11.3338 7.33337 11.0351 7.33337 10.6671V7.33377ZM8.00004 13.3338C5.05937 13.3338 2.66671 10.9411 2.66671 8.00044C2.66671 5.05977 5.05937 2.6671 8.00004 2.6671C10.9407 2.6671 13.3334 5.05977 13.3334 8.00044C13.3334 10.9411 10.9407 13.3338 8.00004 13.3338ZM8.00004 1.33377C4.31804 1.33377 1.33337 4.31844 1.33337 8.00044C1.33337 11.6824 4.31804 14.6671 8.00004 14.6671C11.6814 14.6671 14.6667 11.6824 14.6667 8.00044C14.6667 4.31844 11.6814 1.33377 8.00004 1.33377Z" fill="#071435"/>
</mask>
<g mask="url(#mask0_6_4622)">
<rect width="16" height="16" transform="translate(0 0.000427246)" fill="#77829E"/>
</g>
</svg>
