<svg width="32" height="32" viewBox="0 0 32 32" fill="none" xmlns="http://www.w3.org/2000/svg">
<mask id="mask0_2342_834" style="mask-type:alpha" maskUnits="userSpaceOnUse" x="0" y="0" width="32" height="32">
<path fill-rule="evenodd" clip-rule="evenodd" d="M9.62624 8.00004C8.47424 8.00004 7.39424 8.44537 6.58624 9.25471C4.90891 10.9347 4.90891 13.6694 6.58757 15.352L15.9996 24.78L25.4129 15.352C27.0916 13.6694 27.0916 10.9347 25.4129 9.25471C23.7969 7.63471 20.9489 7.63737 19.3329 9.25471L16.9436 11.648C16.4422 12.1507 15.5569 12.1507 15.0556 11.648L12.6662 9.25337C11.8582 8.44537 10.7796 8.00004 9.62624 8.00004ZM15.9996 28C15.6462 28 15.3062 27.86 15.0569 27.608L4.69957 17.2347C1.98491 14.5147 1.98491 10.0894 4.69957 7.36937C6.01157 6.05737 7.76091 5.33337 9.62624 5.33337C11.4916 5.33337 13.2422 6.05737 14.5529 7.36937L15.9996 8.81871L17.4462 7.37071C18.7582 6.05737 20.5076 5.33337 22.3742 5.33337C24.2382 5.33337 25.9889 6.05737 27.2996 7.36937C30.0156 10.0894 30.0156 14.5147 27.3009 17.2347L16.9436 27.6094C16.6929 27.86 16.3542 28 15.9996 28Z" fill="#071435"/>
</mask>
<g mask="url(#mask0_2342_834)">
<rect width="32" height="32" fill="#77829E"/>
</g>
</svg>
