<svg width="16" height="16" viewBox="0 0 16 16" fill="none" xmlns="http://www.w3.org/2000/svg">
<mask id="mask0_6_4625" style="mask-type:alpha" maskUnits="userSpaceOnUse" x="0" y="0" width="16" height="17">
<path d="M14.3864 4.72445C14.2349 4.17965 13.7803 3.74954 13.2046 3.599C12.1667 3.33377 8.00004 3.33377 8.00004 3.33377C8.00004 3.33377 3.83337 3.33377 2.78792 3.599C2.21216 3.74237 1.76519 4.17248 1.6061 4.72445C1.33337 5.7137 1.33337 7.77822 1.33337 7.77822C1.33337 7.77822 1.33337 9.84273 1.61368 10.832C1.76519 11.3768 2.21974 11.8069 2.7955 11.9574C3.83337 12.2227 8.00004 12.2227 8.00004 12.2227C8.00004 12.2227 12.1667 12.2227 13.2122 11.9574C13.7879 11.8141 14.2349 11.384 14.394 10.832C14.6667 9.84273 14.6667 7.77822 14.6667 7.77822C14.6667 7.77822 14.6667 5.7137 14.3864 4.72445ZM6.6364 9.65635V5.90008L10.1213 7.77822L6.6364 9.65635Z" fill="#071435"/>
</mask>
<g mask="url(#mask0_6_4625)">
<rect width="16" height="16" transform="translate(0 0.000427246)" fill="#1551E5"/>
</g>
</svg>
